<svg width="13" height="22" viewBox="0 0 13 22" fill="none" xmlns="http://www.w3.org/2000/svg">
<g clip-path="url(#clip0_1_140)">
<path d="M6.09644 15.8542C5.92678 15.8542 5.78175 15.7954 5.66135 15.6777C5.54095 15.5601 5.48074 15.4164 5.48074 15.2468C5.48074 15.0771 5.54368 14.9293 5.66956 14.8035L8.98612 11.4951L5.66956 8.18675C5.54368 8.06088 5.48074 7.91311 5.48074 7.74345C5.48074 7.57379 5.54095 7.43013 5.66135 7.31246C5.78175 7.19479 5.92678 7.13596 6.09644 7.13596C6.25516 7.13596 6.39745 7.19343 6.52333 7.30836L10.2668 11.0354C10.3981 11.1558 10.4638 11.309 10.4638 11.4951C10.4638 11.6702 10.3981 11.8235 10.2668 11.9548L6.52333 15.6819C6.4084 15.7968 6.2661 15.8542 6.09644 15.8542Z" fill="#0066CC"/>
</g>
<defs>
<clipPath id="clip0_1_140">
<rect width="7.13" height="21" fill="white" transform="matrix(1 0 0 -1 5.48074 21.9788)"/>
</clipPath>
</defs>
</svg>
