<svg width="17" height="30" viewBox="0 0 17 30" fill="none" xmlns="http://www.w3.org/2000/svg">
<g clip-path="url(#clip0_1_76)">
<path d="M7.56491 20.7307C7.35158 20.7307 7.16922 20.6567 7.01783 20.5087C6.86644 20.3608 6.79074 20.1801 6.79074 19.9668C6.79074 19.7535 6.86988 19.5677 7.02815 19.4094L11.1983 15.2496L7.02815 11.0897C6.86988 10.9314 6.79074 10.7456 6.79074 10.5323C6.79074 10.319 6.86644 10.1383 7.01783 9.99038C7.16922 9.84243 7.35158 9.76845 7.56491 9.76845C7.76447 9.76845 7.94339 9.84071 8.10166 9.98522L12.8086 14.6715C12.9738 14.8229 13.0563 15.0156 13.0563 15.2496C13.0563 15.4698 12.9738 15.6624 12.8086 15.8276L8.10166 20.5139C7.95715 20.6584 7.77823 20.7307 7.56491 20.7307Z" fill="#2997FF"/>
</g>
<defs>
<clipPath id="clip0_1_76">
<rect width="9.51" height="29" fill="white" transform="matrix(1 0 0 -1 6.79074 29.7289)"/>
</clipPath>
</defs>
</svg>
