<svg width="13" height="22" viewBox="0 0 13 22" fill="none" xmlns="http://www.w3.org/2000/svg">
<g clip-path="url(#clip0_1_216)">
<path d="M6.46641 14.9644C6.29675 14.9644 6.15172 14.9055 6.03131 14.7879C5.91091 14.6702 5.85071 14.5265 5.85071 14.3569C5.85071 14.1872 5.91365 14.0394 6.03952 13.9136L9.35608 10.6052L6.03952 7.29686C5.91365 7.17098 5.85071 7.02322 5.85071 6.85356C5.85071 6.6839 5.91091 6.54023 6.03131 6.42257C6.15172 6.3049 6.29675 6.24607 6.46641 6.24607C6.62512 6.24607 6.76741 6.30353 6.89329 6.41846L10.6367 10.1455C10.7681 10.2659 10.8338 10.4191 10.8338 10.6052C10.8338 10.7803 10.7681 10.9336 10.6367 11.0649L6.89329 14.792C6.77836 14.9069 6.63607 14.9644 6.46641 14.9644Z" fill="#2997FF"/>
</g>
<defs>
<clipPath id="clip0_1_216">
<rect width="7.13" height="21" fill="white" transform="matrix(1 0 0 -1 5.85071 21.0889)"/>
</clipPath>
</defs>
</svg>
