<svg width="22" height="15" viewBox="0 0 22 15" fill="none" xmlns="http://www.w3.org/2000/svg">
<g clip-path="url(#clip0_1_280)">
<path d="M11.6575 12.999C11.0241 12.999 10.4123 12.9159 9.82208 12.7495C9.23191 12.5832 8.67706 12.3462 8.15753 12.0386C7.638 11.731 7.16632 11.3652 6.74249 10.9414C6.31866 10.5176 5.95294 10.0459 5.64532 9.52637C5.33771 9.00684 5.10073 8.45199 4.93439 7.86182C4.76805 7.27165 4.68488 6.65983 4.68488 6.02637C4.68488 5.38835 4.76805 4.77539 4.93439 4.1875C5.10073 3.59961 5.33657 3.0459 5.64191 2.52637C5.94725 2.00684 6.31183 1.53516 6.73566 1.11133C7.15948 0.6875 7.63116 0.321777 8.1507 0.0141602C8.67023 -0.293457 9.22508 -0.530436 9.81525 -0.696777C10.4054 -0.863118 11.0172 -0.946289 11.6507 -0.946289C12.2887 -0.946289 12.9028 -0.863118 13.493 -0.696777C14.0832 -0.530436 14.6369 -0.293457 15.1541 0.0141602C15.6714 0.321777 16.143 0.6875 16.5692 1.11133C16.9953 1.53516 17.3621 2.00684 17.6697 2.52637C17.9774 3.0459 18.2143 3.59961 18.3807 4.1875C18.547 4.77539 18.6302 5.38835 18.6302 6.02637C18.6302 6.65983 18.547 7.27165 18.3807 7.86182C18.2143 8.45199 17.9774 9.00684 17.6697 9.52637C17.3621 10.0459 16.9964 10.5176 16.5726 10.9414C16.1487 11.3652 15.6771 11.731 15.1575 12.0386C14.638 12.3462 14.0843 12.5832 13.4964 12.7495C12.9085 12.9159 12.2956 12.999 11.6575 12.999ZM10.4134 8.66504L14.2552 6.38867C14.3509 6.33398 14.4136 6.25993 14.4432 6.1665C14.4728 6.07308 14.4717 5.97965 14.4398 5.88623C14.4079 5.79281 14.3463 5.71875 14.2552 5.66406L10.4134 3.3877C10.3177 3.32845 10.2174 3.30339 10.1126 3.3125C10.0078 3.32161 9.91892 3.35693 9.84601 3.41846C9.77309 3.47998 9.73663 3.56315 9.73663 3.66797V8.37793C9.73663 8.48275 9.77081 8.5682 9.83917 8.63428C9.90753 8.70036 9.99412 8.73682 10.0989 8.74365C10.2038 8.75049 10.3086 8.72428 10.4134 8.66504Z" fill="#1D1D1F"/>
</g>
<defs>
<clipPath id="clip0_1_280">
<rect width="16.71" height="14" fill="white" transform="matrix(1 0 0 -1 4.41074 14.3389)"/>
</clipPath>
</defs>
</svg>
