<svg width="13" height="22" viewBox="0 0 13 22" fill="none" xmlns="http://www.w3.org/2000/svg">
<g clip-path="url(#clip0_1_191)">
<path d="M6.46644 14.9644C6.29678 14.9644 6.15175 14.9055 6.03134 14.7879C5.91094 14.6702 5.85074 14.5265 5.85074 14.3569C5.85074 14.1872 5.91368 14.0394 6.03955 13.9136L9.35611 10.6052L6.03955 7.29686C5.91368 7.17098 5.85074 7.02322 5.85074 6.85356C5.85074 6.6839 5.91094 6.54023 6.03134 6.42257C6.15175 6.3049 6.29678 6.24607 6.46644 6.24607C6.62515 6.24607 6.76744 6.30353 6.89332 6.41846L10.6368 10.1455C10.7681 10.2659 10.8338 10.4191 10.8338 10.6052C10.8338 10.7803 10.7681 10.9336 10.6368 11.0649L6.89332 14.792C6.77839 14.9069 6.6361 14.9644 6.46644 14.9644Z" fill="#0066CC"/>
</g>
<defs>
<clipPath id="clip0_1_191">
<rect width="7.13" height="21" fill="white" transform="matrix(1 0 0 -1 5.85074 21.0889)"/>
</clipPath>
</defs>
</svg>
