<svg width="13" height="22" viewBox="0 0 13 22" fill="none" xmlns="http://www.w3.org/2000/svg">
<g clip-path="url(#clip0_1_146)">
<path d="M5.70643 15.8542C5.53677 15.8542 5.39174 15.7954 5.27133 15.6777C5.15093 15.5601 5.09073 15.4164 5.09073 15.2468C5.09073 15.0771 5.15367 14.9293 5.27954 14.8035L8.5961 11.4951L5.27954 8.18675C5.15367 8.06088 5.09073 7.91311 5.09073 7.74345C5.09073 7.57379 5.15093 7.43013 5.27133 7.31246C5.39174 7.19479 5.53677 7.13596 5.70643 7.13596C5.86514 7.13596 6.00744 7.19343 6.13331 7.30836L9.87676 11.0354C10.0081 11.1558 10.0738 11.309 10.0738 11.4951C10.0738 11.6702 10.0081 11.8235 9.87676 11.9548L6.13331 15.6819C6.01838 15.7968 5.87609 15.8542 5.70643 15.8542Z" fill="#0066CC"/>
</g>
<defs>
<clipPath id="clip0_1_146">
<rect width="7.13" height="21" fill="white" transform="matrix(1 0 0 -1 5.09073 21.9788)"/>
</clipPath>
</defs>
</svg>
