<svg width="27" height="16" viewBox="0 0 27 16" fill="none" xmlns="http://www.w3.org/2000/svg">
<g clip-path="url(#clip0_1_262)">
<path d="M13.8615 15.2432C13.0354 15.2432 12.2375 15.2372 11.4678 15.2253C10.6982 15.2135 9.97457 15.1965 9.29704 15.1746C8.6195 15.1526 8.00437 15.1265 7.45164 15.0962C6.89892 15.0659 6.42197 15.0322 6.0208 14.9951C5.61963 14.958 5.31057 14.9184 5.09364 14.8762C4.87671 14.8341 4.76825 14.7904 4.76825 14.7451C4.76825 14.6995 4.87671 14.6558 5.09364 14.6138C5.31057 14.5718 5.61814 14.5322 6.01634 14.4951C6.41454 14.458 6.89 14.4243 7.44273 14.394C7.99546 14.3638 8.61059 14.3376 9.28812 14.3157C9.96566 14.2937 10.6893 14.2768 11.4589 14.2649C12.2286 14.253 13.0265 14.2471 13.8526 14.2471C14.6846 14.2471 15.4855 14.253 16.2551 14.2649C17.0248 14.2768 17.7469 14.2937 18.4215 14.3157C19.096 14.3376 19.7112 14.3638 20.2669 14.394C20.8226 14.4243 21.301 14.458 21.7022 14.4951C22.1033 14.5322 22.4124 14.5718 22.6293 14.6138C22.8463 14.6558 22.9547 14.6995 22.9547 14.7451C22.9547 14.7904 22.8463 14.8341 22.6293 14.8762C22.4124 14.9184 22.1033 14.958 21.7022 14.9951C21.301 15.0322 20.824 15.0659 20.2713 15.0962C19.7186 15.1265 19.1035 15.1526 18.4259 15.1746C17.7484 15.1965 17.0263 15.2135 16.2596 15.2253C15.4929 15.2372 14.6935 15.2432 13.8615 15.2432ZM12.239 14.9336L17.2492 14.771C17.374 14.7671 17.4557 14.7618 17.4943 14.7551C17.5329 14.7485 17.5315 14.7418 17.4899 14.7351C17.4483 14.7284 17.368 14.7231 17.2492 14.7192L12.239 14.5566C12.1142 14.5524 11.9834 14.5506 11.8467 14.5513C11.71 14.5519 11.5941 14.5544 11.499 14.5588C11.4039 14.5632 11.3564 14.5692 11.3564 14.5767V14.9131C11.3564 14.9206 11.401 14.9267 11.4901 14.9314C11.5793 14.9361 11.6922 14.9387 11.8289 14.9392C11.9656 14.9397 12.1023 14.9378 12.239 14.9336Z" fill="#1D1D1F"/>
</g>
<defs>
<clipPath id="clip0_1_262">
<rect width="21.792" height="1" fill="white" transform="matrix(1 0 0 -1 4.41077 15.3389)"/>
</clipPath>
</defs>
</svg>
