<svg width="17" height="30" viewBox="0 0 17 30" fill="none" xmlns="http://www.w3.org/2000/svg">
<g clip-path="url(#clip0_1_70)">
<path d="M7.53491 20.7307C7.32158 20.7307 7.13922 20.6567 6.98783 20.5087C6.83644 20.3608 6.76074 20.1801 6.76074 19.9668C6.76074 19.7535 6.83988 19.5677 6.99815 19.4094L11.1683 15.2496L6.99815 11.0897C6.83988 10.9314 6.76074 10.7456 6.76074 10.5323C6.76074 10.319 6.83644 10.1383 6.98783 9.99038C7.13922 9.84243 7.32158 9.76845 7.53491 9.76845C7.73447 9.76845 7.91339 9.84071 8.07166 9.98522L12.7786 14.6715C12.9438 14.8229 13.0263 15.0156 13.0263 15.2496C13.0263 15.4698 12.9438 15.6624 12.7786 15.8276L8.07166 20.5139C7.92715 20.6584 7.74823 20.7307 7.53491 20.7307Z" fill="#2997FF"/>
</g>
<defs>
<clipPath id="clip0_1_70">
<rect width="9.51" height="29" fill="white" transform="matrix(1 0 0 -1 6.76074 29.7289)"/>
</clipPath>
</defs>
</svg>
