<svg width="13" height="22" viewBox="0 0 13 22" fill="none" xmlns="http://www.w3.org/2000/svg">
<g clip-path="url(#clip0_1_197)">
<path d="M6.32642 14.9644C6.15676 14.9644 6.01173 14.9055 5.89133 14.7879C5.77093 14.6702 5.71072 14.5265 5.71072 14.3569C5.71072 14.1872 5.77366 14.0394 5.89954 13.9136L9.2161 10.6052L5.89954 7.29686C5.77366 7.17098 5.71072 7.02322 5.71072 6.85356C5.71072 6.6839 5.77093 6.54023 5.89133 6.42257C6.01173 6.3049 6.15676 6.24607 6.32642 6.24607C6.48514 6.24607 6.62743 6.30353 6.75331 6.41846L10.4968 10.1455C10.6281 10.2659 10.6938 10.4191 10.6938 10.6052C10.6938 10.7803 10.6281 10.9336 10.4968 11.0649L6.75331 14.792C6.63838 14.9069 6.49608 14.9644 6.32642 14.9644Z" fill="#0066CC"/>
</g>
<defs>
<clipPath id="clip0_1_197">
<rect width="7.13" height="21" fill="white" transform="matrix(1 0 0 -1 5.71072 21.0889)"/>
</clipPath>
</defs>
</svg>
