<svg width="13" height="22" viewBox="0 0 13 22" fill="none" xmlns="http://www.w3.org/2000/svg">
<g clip-path="url(#clip0_1_222)">
<path d="M6.32639 14.9644C6.15673 14.9644 6.0117 14.9055 5.8913 14.7879C5.77089 14.6702 5.71069 14.5265 5.71069 14.3569C5.71069 14.1872 5.77363 14.0394 5.89951 13.9136L9.21607 10.6052L5.89951 7.29686C5.77363 7.17098 5.71069 7.02322 5.71069 6.85356C5.71069 6.6839 5.77089 6.54023 5.8913 6.42257C6.0117 6.3049 6.15673 6.24607 6.32639 6.24607C6.4851 6.24607 6.6274 6.30353 6.75328 6.41846L10.4967 10.1455C10.6281 10.2659 10.6937 10.4191 10.6937 10.6052C10.6937 10.7803 10.6281 10.9336 10.4967 11.0649L6.75328 14.792C6.63835 14.9069 6.49605 14.9644 6.32639 14.9644Z" fill="#2997FF"/>
</g>
<defs>
<clipPath id="clip0_1_222">
<rect width="7.13" height="21" fill="white" transform="matrix(1 0 0 -1 5.71069 21.0889)"/>
</clipPath>
</defs>
</svg>
