<svg width="13" height="22" viewBox="0 0 13 22" fill="none" xmlns="http://www.w3.org/2000/svg">
<g clip-path="url(#clip0_1_121)">
<path d="M5.93638 15.8542C5.76672 15.8542 5.62169 15.7954 5.50128 15.6777C5.38088 15.5601 5.32068 15.4164 5.32068 15.2468C5.32068 15.0771 5.38362 14.9293 5.50949 14.8035L8.82605 11.4951L5.50949 8.18675C5.38362 8.06088 5.32068 7.91311 5.32068 7.74345C5.32068 7.57379 5.38088 7.43013 5.50128 7.31246C5.62169 7.19479 5.76672 7.13596 5.93638 7.13596C6.09509 7.13596 6.23739 7.19343 6.36326 7.30836L10.1067 11.0354C10.2381 11.1558 10.3037 11.309 10.3037 11.4951C10.3037 11.6702 10.2381 11.8235 10.1067 11.9548L6.36326 15.6819C6.24833 15.7968 6.10604 15.8542 5.93638 15.8542Z" fill="#0066CC"/>
</g>
<defs>
<clipPath id="clip0_1_121">
<rect width="7.13" height="21" fill="white" transform="matrix(1 0 0 -1 5.32068 21.9788)"/>
</clipPath>
</defs>
</svg>
