<svg width="31" height="45" viewBox="0 0 31 45" fill="none" xmlns="http://www.w3.org/2000/svg">
<g clip-path="url(#clip0_1_587)">
<path d="M20.1243 16.1172H19.1038C18.9944 15.3062 18.598 14.5612 17.9866 14.0173C17.3751 13.4734 16.589 13.1665 15.7708 13.1524C14.9525 13.1665 14.1664 13.4734 13.555 14.0173C12.9435 14.5612 12.5472 15.3062 12.4378 16.1172H11.4178C10.8566 16.1176 10.3184 16.3406 9.92153 16.7374C9.52462 17.1341 9.30136 17.6722 9.30078 18.2334V25.9489C9.30128 26.51 9.52439 27.0481 9.92113 27.4449C10.3179 27.8417 10.8558 28.065 11.417 28.0656H20.124C20.6852 28.0651 21.2234 27.842 21.6202 27.4451C22.0171 27.0482 22.2403 26.5101 22.2408 25.9489V18.2334C22.2402 17.6723 22.017 17.1343 21.6202 16.7375C21.2234 16.3408 20.6854 16.1177 20.1243 16.1172ZM15.7708 14.252C16.2982 14.2635 16.8059 14.4546 17.21 14.7937C17.614 15.1329 17.8903 15.5998 17.993 16.1172H13.5486C13.6513 15.5998 13.9275 15.1329 14.3316 14.7937C14.7357 14.4546 15.2434 14.2635 15.7708 14.252ZM21.1408 25.9489C21.1405 26.2185 21.0333 26.4769 20.8427 26.6676C20.6522 26.8583 20.3938 26.9656 20.1242 26.966H11.4173C11.1477 26.9655 10.8893 26.8582 10.6988 26.6676C10.5082 26.4769 10.4011 26.2184 10.4008 25.9489V18.2334C10.4011 17.9639 10.5083 17.7055 10.6989 17.5149C10.8895 17.3243 11.1479 17.2171 11.4174 17.2168H20.1244C20.3939 17.2172 20.6522 17.3244 20.8427 17.515C21.0333 17.7055 21.1405 17.9639 21.1408 18.2334V25.9489Z" fill="white" fill-opacity="0.8"/>
</g>
<defs>
<clipPath id="clip0_1_587">
<rect width="14" height="44" fill="white" transform="translate(8.77075 0.0888882)"/>
</clipPath>
</defs>
</svg>
