<svg width="32" height="45" viewBox="0 0 32 45" fill="none" xmlns="http://www.w3.org/2000/svg">
<g clip-path="url(#clip0_1_581)">
<path d="M22.9279 27.2909L19.0579 23.4209C19.7589 22.4919 20.1799 21.3399 20.1799 20.0889C20.1799 17.0289 17.6909 14.5389 14.6299 14.5389C11.5699 14.5389 9.0799 17.0289 9.0799 20.0889C9.0799 23.1499 11.5699 25.6389 14.6299 25.6389C15.8809 25.6389 17.0329 25.2179 17.9619 24.5169L21.8319 28.3869C21.9829 28.5379 22.1819 28.6149 22.3799 28.6149C22.5779 28.6149 22.7759 28.5389 22.9279 28.3869C23.2309 28.0839 23.2309 27.5939 22.9279 27.2909ZM10.1799 20.0889C10.1799 17.6349 12.1769 15.6389 14.6299 15.6389C17.0839 15.6389 19.0799 17.6359 19.0799 20.0889C19.0799 22.5419 17.0839 24.5389 14.6299 24.5389C12.1759 24.5389 10.1799 22.5429 10.1799 20.0889Z" fill="white" fill-opacity="0.8"/>
</g>
<defs>
<clipPath id="clip0_1_581">
<rect width="15" height="44" fill="white" transform="translate(8.62988 0.0888882)"/>
</clipPath>
</defs>
</svg>
