<svg width="31" height="39" viewBox="0 0 31 39" fill="none" xmlns="http://www.w3.org/2000/svg">
<g clip-path="url(#clip0_1_335)">
<path d="M11.8983 30.0635C10.9028 30.0635 9.94139 29.9328 9.01398 29.6714C8.08657 29.41 7.21466 29.0376 6.39825 28.5542C5.58185 28.0708 4.84064 27.4961 4.17462 26.8301C3.50861 26.1641 2.9339 25.4229 2.4505 24.6064C1.9671 23.79 1.59471 22.9181 1.33331 21.9907C1.07192 21.0633 0.941223 20.1019 0.941223 19.1064C0.941223 18.1038 1.07192 17.1406 1.33331 16.2168C1.59471 15.293 1.96531 14.4229 2.44513 13.6064C2.92495 12.79 3.49786 12.0488 4.16388 11.3828C4.8299 10.7168 5.57111 10.1421 6.38751 9.65869C7.20392 9.17529 8.07583 8.8029 9.00323 8.5415C9.93064 8.28011 10.8921 8.14941 11.8875 8.14941C12.8901 8.14941 13.8551 8.28011 14.7825 8.5415C15.7099 8.8029 16.5801 9.17529 17.3929 9.65869C18.2057 10.1421 18.9469 10.7168 19.6165 11.3828C20.2861 12.0488 20.8626 12.79 21.346 13.6064C21.8294 14.4229 22.2018 15.293 22.4632 16.2168C22.7246 17.1406 22.8553 18.1038 22.8553 19.1064C22.8553 20.1019 22.7246 21.0633 22.4632 21.9907C22.2018 22.9181 21.8294 23.79 21.346 24.6064C20.8626 25.4229 20.2879 26.1641 19.6219 26.8301C18.9559 27.4961 18.2147 28.0708 17.3983 28.5542C16.5818 29.0376 15.7117 29.41 14.7879 29.6714C13.8641 29.9328 12.9009 30.0635 11.8983 30.0635ZM11.8983 28.2373C12.9152 28.2373 13.8802 28.0851 14.7933 27.7808C15.7064 27.4764 16.5425 27.0449 17.3016 26.4863C18.0607 25.9277 18.7195 25.2689 19.2781 24.5098C19.8367 23.7507 20.2682 22.9146 20.5726 22.0015C20.8769 21.0884 21.0291 20.1234 21.0291 19.1064C21.0291 18.0895 20.8751 17.1245 20.5672 16.2114C20.2593 15.2983 19.826 14.4622 19.2674 13.7031C18.7088 12.944 18.0499 12.2852 17.2908 11.7266C16.5317 11.168 15.6956 10.7365 14.7825 10.4321C13.8694 10.1278 12.9044 9.97559 11.8875 9.97559C10.8706 9.97559 9.90737 10.1278 8.99786 10.4321C8.08836 10.7365 7.25405 11.168 6.49493 11.7266C5.73582 12.2852 5.07876 12.944 4.52374 13.7031C3.96873 14.4622 3.53904 15.2983 3.23468 16.2114C2.93032 17.1245 2.77814 18.0895 2.77814 19.1064C2.77814 20.1234 2.93032 21.0884 3.23468 22.0015C3.53904 22.9146 3.96873 23.7507 4.52374 24.5098C5.07876 25.2689 5.73582 25.9277 6.49493 26.4863C7.25405 27.0449 8.09015 27.4764 9.00323 27.7808C9.91632 28.0851 10.8813 28.2373 11.8983 28.2373ZM10.0076 23.0596C9.85008 23.1527 9.69432 23.1938 9.54034 23.1831C9.38637 23.1724 9.25747 23.1169 9.15363 23.0166C9.04978 22.9163 8.99786 22.7874 8.99786 22.6299V15.5938C8.99786 15.429 9.05157 15.3001 9.159 15.207C9.26642 15.1139 9.39891 15.062 9.55646 15.0513C9.71401 15.0405 9.8644 15.0781 10.0076 15.1641L15.7654 18.5693C15.9015 18.6481 15.9928 18.7573 16.0394 18.897C16.0859 19.0366 16.0877 19.1763 16.0447 19.3159C16.0018 19.4556 15.9087 19.5684 15.7654 19.6543L10.0076 23.0596Z" fill="#1D1D1D"/>
</g>
<defs>
<clipPath id="clip0_1_335">
<rect width="25.75" height="22" fill="white" transform="matrix(1 0 0 -1 0.940735 32.1689)"/>
</clipPath>
</defs>
</svg>
