<svg width="84" height="45" viewBox="0 0 84 45" fill="none" xmlns="http://www.w3.org/2000/svg">
<g clip-path="url(#clip0_1_570)">
<path d="M14.0087 23.6604H10.6454L9.79578 26.0803H8.68839L11.8056 17.6252H12.8486L15.9658 26.0803H14.8583L14.0087 23.6604ZM10.956 22.7639H13.6982L12.374 18.9905H12.2802L10.956 22.7639ZM21.0546 21.6975C20.8905 21.0705 20.3339 20.5608 19.4257 20.5608C18.289 20.5608 17.5741 21.469 17.5741 22.8987C17.5741 24.3577 18.3007 25.2835 19.4257 25.2835C20.2753 25.2835 20.8671 24.8909 21.0546 24.1761H22.0741C21.8925 25.3363 20.9491 26.1917 19.4315 26.1917C17.662 26.1917 16.5311 24.9085 16.5311 22.8987C16.5311 20.9299 17.6561 19.6526 19.4256 19.6526C20.9608 19.6526 21.8983 20.5725 22.074 21.6975H21.0546ZM27.6493 21.6975C27.4852 21.0705 26.9286 20.5608 26.0204 20.5608C24.8837 20.5608 24.1688 21.469 24.1688 22.8987C24.1688 24.3577 24.8954 25.2835 26.0204 25.2835C26.87 25.2835 27.4618 24.8909 27.6493 24.1761H28.6688C28.4872 25.3363 27.5438 26.1917 26.0262 26.1917C24.2567 26.1917 23.1258 24.9085 23.1258 22.8987C23.1258 20.9299 24.2508 19.6526 26.0203 19.6526C27.5555 19.6526 28.493 20.5725 28.6687 21.6975H27.6493ZM35.2289 24.4455C34.9359 25.5236 33.9516 26.1916 32.5687 26.1916C30.8167 26.1916 29.721 24.926 29.721 22.9279C29.721 20.9416 30.8343 19.6525 32.5687 19.6525C34.2738 19.6525 35.3109 20.8654 35.3109 22.8283V23.215H30.7699V23.2619C30.8226 24.5099 31.5199 25.301 32.5922 25.301C33.4067 25.301 33.9574 25.0022 34.2211 24.4455H35.2289ZM30.7699 22.4006H34.2504C34.227 21.2815 33.559 20.5432 32.557 20.5432C31.5492 20.5432 30.8461 21.2815 30.7699 22.4006ZM38.9819 19.6526C40.3061 19.6526 41.226 20.3088 41.3608 21.346H40.3647C40.2299 20.8421 39.7377 20.5081 38.976 20.5081C38.226 20.5081 37.6401 20.889 37.6401 21.4515C37.6401 21.8851 37.9917 22.1546 38.7358 22.3363L39.7085 22.5707C40.898 22.8578 41.4722 23.3734 41.4722 24.2816C41.4722 25.4125 40.3765 26.1918 38.941 26.1918C37.5348 26.1918 36.568 25.518 36.4566 24.4691H37.4937C37.6636 25.0023 38.1675 25.3421 38.9761 25.3421C39.8257 25.3421 40.4351 24.9378 40.4351 24.3577C40.4351 23.9241 40.107 23.6311 39.4331 23.4671L38.3491 23.2034C37.1655 22.9163 36.6264 22.4065 36.6264 21.4925C36.6264 20.4436 37.6401 19.6526 38.9819 19.6526ZM45.0258 19.6526C46.35 19.6526 47.2699 20.3088 47.4047 21.346H46.4086C46.2738 20.8421 45.7816 20.5081 45.0199 20.5081C44.2699 20.5081 43.684 20.889 43.684 21.4515C43.684 21.8851 44.0356 22.1546 44.7797 22.3363L45.7524 22.5707C46.9419 22.8578 47.5161 23.3734 47.5161 24.2816C47.5161 25.4125 46.4204 26.1918 44.9849 26.1918C43.5787 26.1918 42.6119 25.518 42.5005 24.4691H43.5376C43.7075 25.0023 44.2114 25.3421 45.02 25.3421C45.8696 25.3421 46.479 24.9378 46.479 24.3577C46.479 23.9241 46.1509 23.6311 45.477 23.4671L44.393 23.2034C43.2094 22.9163 42.6703 22.4065 42.6703 21.4925C42.6703 20.4436 43.684 19.6526 45.0258 19.6526ZM48.6615 22.9221C48.6615 20.8889 49.7748 19.6526 51.5736 19.6526C53.3724 19.6526 54.4857 20.8889 54.4857 22.9221C54.4857 24.9494 53.3724 26.1916 51.5736 26.1916C49.7748 26.1916 48.6615 24.9494 48.6615 22.9221ZM53.4428 22.9221C53.4428 21.4221 52.769 20.5608 51.5737 20.5608C50.3784 20.5608 49.7046 21.4221 49.7046 22.9221C49.7046 24.4162 50.3784 25.2834 51.5737 25.2834C52.769 25.2834 53.4428 24.4162 53.4428 22.9221ZM55.9482 19.7639H56.9091V20.7014H57.0029C57.1904 20.0862 57.917 19.6526 58.7549 19.6526C58.919 19.6526 59.1299 19.6643 59.2588 19.6819V20.6897C59.1768 20.6663 58.8135 20.6311 58.6143 20.6311C57.6534 20.6311 56.9561 21.2756 56.9561 22.1663V26.0804H55.9483L55.9482 19.7639ZM60.2226 17.842C60.2226 17.4553 60.539 17.1389 60.9257 17.1389C61.3124 17.1389 61.6288 17.4553 61.6288 17.842C61.6288 18.2287 61.3124 18.5451 60.9257 18.5451C60.539 18.5451 60.2226 18.2287 60.2226 17.842ZM60.4218 19.7639H61.4296V26.0803H60.4218V19.7639ZM68.4228 24.4455C68.1298 25.5236 67.1455 26.1916 65.7626 26.1916C64.0106 26.1916 62.9149 24.926 62.9149 22.9279C62.9149 20.9416 64.0282 19.6525 65.7626 19.6525C67.4677 19.6525 68.5048 20.8654 68.5048 22.8283V23.215H63.9638V23.2619C64.0165 24.5099 64.7138 25.301 65.7861 25.301C66.6006 25.301 67.1513 25.0022 67.415 24.4455H68.4228ZM63.9638 22.4006H67.4443C67.4209 21.2815 66.7529 20.5432 65.7509 20.5432C64.7431 20.5432 64.04 21.2815 63.9638 22.4006ZM72.1757 19.6526C73.4999 19.6526 74.4198 20.3088 74.5546 21.346H73.5585C73.4237 20.8421 72.9315 20.5081 72.1698 20.5081C71.4198 20.5081 70.8339 20.889 70.8339 21.4515C70.8339 21.8851 71.1855 22.1546 71.9296 22.3363L72.9023 22.5707C74.0918 22.8578 74.666 23.3734 74.666 24.2816C74.666 25.4125 73.5703 26.1918 72.1348 26.1918C70.7286 26.1918 69.7618 25.518 69.6504 24.4691H70.6875C70.8574 25.0023 71.3613 25.3421 72.1699 25.3421C73.0195 25.3421 73.6289 24.9378 73.6289 24.3577C73.6289 23.9241 73.3008 23.6311 72.6269 23.4671L71.5429 23.2034C70.3593 22.9163 69.8202 22.4065 69.8202 21.4925C69.8202 20.4436 70.8339 19.6526 72.1757 19.6526Z" fill="white" fill-opacity="0.8"/>
</g>
<defs>
<clipPath id="clip0_1_570">
<rect width="67" height="44" fill="white" transform="translate(8.34839 0.0888882)"/>
</clipPath>
</defs>
</svg>
