<svg width="52" height="45" viewBox="0 0 52 45" fill="none" xmlns="http://www.w3.org/2000/svg">
<path d="M37.6265 17.2647H38.6345V20.7687H38.7285C39.0445 20.0717 39.7065 19.6607 40.6735 19.6607C42.0095 19.6607 42.8535 20.5167 42.8535 21.9987V26.0887H41.8455V22.2447C41.8455 21.1257 41.3415 20.5697 40.3865 20.5697C39.2555 20.5697 38.6345 21.2847 38.6345 22.3507V26.0887H37.6265V17.2647ZM35.2065 21.7057C35.0425 21.0787 34.4855 20.5697 33.5775 20.5697C32.4405 20.5697 31.7255 21.4777 31.7255 22.9077C31.7255 24.3667 32.4525 25.2917 33.5775 25.2917C34.4265 25.2917 35.0185 24.8997 35.2065 24.1847H36.2255C36.0435 25.3447 35.1005 26.2007 33.5835 26.2007C31.8135 26.2007 30.6825 24.9167 30.6825 22.9077C30.6825 20.9387 31.8075 19.6607 33.5775 19.6607C35.1125 19.6607 36.0495 20.5807 36.2255 21.7057H35.2065ZM28.6735 18.1377V19.7727H30.0805V20.6167H28.6735V24.1907C28.6735 24.9347 28.9555 25.2507 29.6115 25.2507C29.7935 25.2507 29.8925 25.2447 30.0805 25.2277V26.0777C29.8805 26.1127 29.6875 26.1357 29.4885 26.1357C28.1875 26.1357 27.6665 25.6557 27.6665 24.4487V20.6167H26.6465V19.7727H27.6665V18.1377H28.6735ZM24.4735 23.7337V23.1537L22.7745 23.2647C21.8135 23.3287 21.3915 23.6627 21.3915 24.2957C21.3915 24.9407 21.9365 25.3157 22.6685 25.3157C23.7065 25.3157 24.4735 24.6357 24.4735 23.7337ZM20.3485 24.3197C20.3485 23.1887 21.1805 22.5377 22.6515 22.4507L24.4735 22.3387V21.7647C24.4735 20.9857 23.9875 20.5577 23.0435 20.5577C22.2885 20.5577 21.7605 20.8447 21.6205 21.3427H20.6005C20.7355 20.3287 21.7315 19.6607 23.0795 19.6607C24.6205 19.6607 25.4815 20.4527 25.4815 21.7647V26.0887H24.5205V25.1577H24.4265C24.0165 25.8307 23.3255 26.2007 22.4815 26.2007C21.2565 26.2007 20.3485 25.4737 20.3485 24.3197ZM12.6645 26.0887H11.6685L9.36549 17.6337H10.4665L12.1485 24.5067H12.2185L14.1115 17.6337H15.1775L17.0705 24.5067H17.1405L18.8225 17.6337H19.9235L17.6215 26.0887H16.6255L14.6795 19.4147H14.6095L12.6645 26.0887Z" fill="white" fill-opacity="0.8"/>
</svg>
