<svg width="51" height="45" viewBox="0 0 51 45" fill="none" xmlns="http://www.w3.org/2000/svg">
<g clip-path="url(#clip0_1_548)">
<path d="M9.18967 17.6338H10.2971L12.7815 24.7236H12.8753L15.3597 17.6338H16.4671L13.3499 26.0889H12.3069L9.18967 17.6338ZM17.5364 17.8506C17.5364 17.4639 17.8528 17.1475 18.2395 17.1475C18.6262 17.1475 18.9426 17.4639 18.9426 17.8506C18.9426 18.2373 18.6262 18.5537 18.2395 18.5537C17.8528 18.5537 17.5364 18.2373 17.5364 17.8506ZM17.7239 19.7725H18.7434V26.0889H17.7239V19.7725ZM20.2229 24.4776H21.2659C21.4358 25.0049 21.9397 25.3506 22.7483 25.3506C23.5979 25.3506 24.2014 24.9463 24.2014 24.3721V24.3604C24.2014 23.9327 23.8791 23.6338 23.0998 23.4463L22.1213 23.2119C20.9377 22.9307 20.4045 22.415 20.4045 21.5068V21.5009C20.4045 20.4521 21.4123 19.6611 22.7541 19.6611C24.0783 19.6611 24.9982 20.3232 25.1389 21.3545H24.1369C24.0021 20.8565 23.5099 20.5107 22.7482 20.5107C21.9982 20.5107 21.4474 20.8974 21.4474 21.4541V21.4658C21.4474 21.8935 21.7638 22.1631 22.5079 22.3447L23.4806 22.5791C24.6701 22.8662 25.2443 23.3818 25.2443 24.2842V24.2959C25.2443 25.4209 24.1486 26.2002 22.7131 26.2002C21.3069 26.2002 20.3401 25.5206 20.2229 24.4776ZM26.5432 17.8506C26.5432 17.4639 26.8596 17.1475 27.2463 17.1475C27.633 17.1475 27.9494 17.4639 27.9494 17.8506C27.9494 18.2373 27.633 18.5537 27.2463 18.5537C26.8596 18.5537 26.5432 18.2373 26.5432 17.8506ZM26.7307 19.7725H27.7502V26.0889H26.7307V19.7725ZM29.2356 22.9366V22.9249C29.2356 20.8976 30.3489 19.6612 32.1477 19.6612C33.9465 19.6612 35.0598 20.8975 35.0598 22.9249V22.9366C35.0598 24.9581 33.9465 26.2003 32.1477 26.2003C30.3489 26.2003 29.2356 24.9581 29.2356 22.9366ZM34.0168 22.9366V22.9249C34.0168 21.4308 33.343 20.5636 32.1477 20.5636C30.9524 20.5636 30.2786 21.4308 30.2786 22.9249V22.9366C30.2786 24.4249 30.9524 25.2979 32.1477 25.2979C33.343 25.2979 34.0168 24.4249 34.0168 22.9366ZM36.5217 19.7725H37.5412V20.7217H37.635C37.9514 20.0537 38.5432 19.6612 39.4748 19.6612C40.8928 19.6612 41.6838 20.4991 41.6838 21.9991V26.0889H40.6643V22.2451C40.6643 21.1084 40.1955 20.5635 39.1877 20.5635C38.1799 20.5635 37.5412 21.2432 37.5412 22.3506V26.0889H36.5217V19.7725Z" fill="white" fill-opacity="0.8"/>
</g>
<defs>
<clipPath id="clip0_1_548">
<rect width="34" height="44" fill="white" transform="translate(8.78537 0.0888882)"/>
</clipPath>
</defs>
</svg>
