<svg width="41" height="45" viewBox="0 0 41 45" fill="none" xmlns="http://www.w3.org/2000/svg">
<path d="M23.3205 23.7891C23.3205 24.6911 22.5525 25.3711 21.5155 25.3711C20.7835 25.3711 20.2385 24.9961 20.2385 24.3511C20.2385 23.7191 20.6605 23.3851 21.6215 23.3201L23.3205 23.2091V23.7891ZM21.9255 19.7171C20.5785 19.7171 19.5825 20.3851 19.4475 21.3981H20.4665C20.6075 20.9001 21.1345 20.6131 21.8905 20.6131C22.8345 20.6131 23.3205 21.0411 23.3205 21.8201V22.3941L21.4985 22.5061C20.0275 22.5941 19.1955 23.2441 19.1955 24.3751C19.1955 25.5291 20.1035 26.2561 21.3285 26.2561C22.1725 26.2561 22.8635 25.8871 23.2735 25.2131H23.3675V26.1441H24.3285V21.8201C24.3285 20.5081 23.4665 19.7171 21.9255 19.7171ZM28.6945 25.2921C27.5395 25.2921 26.8485 24.4071 26.8485 22.9311C26.8485 21.4601 27.5455 20.5691 28.6945 20.5691C29.8365 20.5691 30.5515 21.4831 30.5515 22.9311C30.5515 24.3901 29.8425 25.2921 28.6945 25.2921ZM30.5285 17.2651V20.7681H30.4405C30.0825 20.0771 29.3385 19.6611 28.4595 19.6611C26.8545 19.6611 25.8055 20.9501 25.8055 22.9311C25.8055 24.9171 26.8425 26.2001 28.4595 26.2001C29.3325 26.2001 30.0825 25.7841 30.4815 25.0811H30.5745V26.0891H31.5355V17.2651H30.5285ZM15.1345 22.1341H13.2715V18.5711H15.1345C16.3595 18.5711 17.0335 19.2101 17.0335 20.3701C17.0335 21.4891 16.3365 22.1341 15.1345 22.1341ZM15.4105 17.6341H12.2165V26.0891H13.2715V23.0711H15.3985C16.9865 23.0711 18.1175 21.9521 18.1175 20.3701C18.1175 18.7591 17.0095 17.6341 15.4105 17.6341ZM9.34654 26.0881H10.3545V19.7721H9.34654V26.0881ZM9.14754 17.8511C9.14754 17.4641 9.46354 17.1471 9.85054 17.1471C10.2375 17.1471 10.5535 17.4641 10.5535 17.8511C10.5535 18.2371 10.2375 18.5541 9.85054 18.5541C9.46354 18.5541 9.14754 18.2371 9.14754 17.8511Z" fill="white" fill-opacity="0.8"/>
</svg>
