<svg width="55" height="45" viewBox="0 0 55 45" fill="none" xmlns="http://www.w3.org/2000/svg">
<path d="M41.2167 22.4092H44.6967C44.6737 21.2902 44.0057 20.5522 43.0037 20.5522C41.9957 20.5522 41.2927 21.2902 41.2167 22.4092ZM45.6757 24.4542C45.3827 25.5322 44.3987 26.2002 43.0157 26.2002C41.2637 26.2002 40.1677 24.9342 40.1677 22.9362C40.1677 20.9502 41.2807 19.6612 43.0157 19.6612C44.7207 19.6612 45.7577 20.8742 45.7577 22.8372V23.2232H41.2167V23.2702C41.2697 24.5182 41.9667 25.3092 43.0387 25.3092C43.8537 25.3092 44.4047 25.0112 44.6677 24.4542H45.6757ZM33.3937 19.7722H34.3547V20.7682H34.4487C34.7647 20.0712 35.3807 19.6612 36.3467 19.6612C37.7647 19.6612 38.5557 20.4992 38.5557 21.9992V26.0892H37.5487V22.2452C37.5487 21.1082 37.0677 20.5692 36.0597 20.5692C35.0517 20.5692 34.4017 21.2432 34.4017 22.3502V26.0892H33.3937V19.7722ZM30.8947 22.9302C30.8947 21.4302 30.2207 20.5692 29.0257 20.5692C27.8297 20.5692 27.1557 21.4302 27.1557 22.9302C27.1557 24.4252 27.8297 25.2922 29.0257 25.2922C30.2207 25.2922 30.8947 24.4252 30.8947 22.9302ZM26.1127 22.9302C26.1127 20.8972 27.2267 19.6612 29.0257 19.6612C30.8237 19.6612 31.9377 20.8972 31.9377 22.9302C31.9377 24.9582 30.8237 26.2002 29.0257 26.2002C27.2267 26.2002 26.1127 24.9582 26.1127 22.9302ZM19.4767 17.2642H20.4847V20.7682H20.5777C20.8947 20.0712 21.5567 19.6612 22.5237 19.6612C23.8597 19.6612 24.7027 20.5162 24.7027 21.9992V26.0892H23.6957V22.2452C23.6957 21.1262 23.1917 20.5692 22.2367 20.5692C21.1057 20.5692 20.4847 21.2842 20.4847 22.3502V26.0892H19.4767V17.2642ZM13.4617 22.1342H15.3247C16.5267 22.1342 17.2237 21.4892 17.2237 20.3702C17.2237 19.2102 16.5497 18.5712 15.3247 18.5712H13.4617V22.1342ZM15.6007 17.6342C17.1997 17.6342 18.3077 18.7592 18.3077 20.3702C18.3077 21.9522 17.1767 23.0712 15.5887 23.0712H13.4617V26.0892H12.4067V17.6342H15.6007ZM9.48671 26.0882H10.4947V19.7722H9.48671V26.0882ZM9.28671 17.8502C9.28671 17.4642 9.60371 17.1472 9.98971 17.1472C10.3767 17.1472 10.6937 17.4642 10.6937 17.8502C10.6937 18.2372 10.3767 18.5542 9.98971 18.5542C9.60371 18.5542 9.28671 18.2372 9.28671 17.8502Z" fill="white" fill-opacity="0.8"/>
</svg>
