<svg width="47" height="45" viewBox="0 0 47 45" fill="none" xmlns="http://www.w3.org/2000/svg">
<g clip-path="url(#clip0_1_523)">
<path d="M34.6494 20.5518C35.6514 20.5518 36.3194 21.2898 36.3424 22.4088H32.8624C32.9384 21.2898 33.6414 20.5518 34.6494 20.5518ZM37.4034 23.2238V22.8368C37.4034 20.8738 36.3664 19.6608 34.6614 19.6608C32.9264 19.6608 31.8134 20.9498 31.8134 22.9368C31.8134 24.9348 32.9094 26.1998 34.6614 26.1998C36.0444 26.1998 37.0284 25.5318 37.3214 24.4538H36.3134C36.0494 25.0108 35.4994 25.3098 34.6844 25.3098C33.6124 25.3098 32.9154 24.5188 32.8624 23.2708V23.2238H37.4034ZM27.8564 19.7728H28.8164V20.7098H28.9104C29.0984 20.0948 29.8244 19.6608 30.6624 19.6608C30.8264 19.6608 31.0374 19.6728 31.1664 19.6908V20.6978C31.0844 20.6748 30.7214 20.6398 30.5224 20.6398C29.5614 20.6398 28.8634 21.7378 28.8634 22.1748V26.0888H27.8564V19.7728ZM23.5864 25.2918C22.3914 25.2918 21.7174 24.4248 21.7174 22.9308C21.7174 21.4308 22.3914 20.5698 23.5864 20.5698C24.7824 20.5698 25.4564 21.4308 25.4564 22.9308C25.4564 24.4248 24.7824 25.2918 23.5864 25.2918ZM23.5864 19.6608C21.7884 19.6608 20.6744 20.8978 20.6744 22.9308C20.6744 24.9578 21.7884 26.1998 23.5864 26.1998C25.3854 26.1998 26.4994 24.9578 26.4994 22.9308C26.4994 20.8978 25.3854 19.6608 23.5864 19.6608ZM18.1084 18.1858V19.8208H19.5154V20.6638H18.1084V24.2388C18.1084 24.9828 18.3904 25.2988 19.0464 25.2988C19.2284 25.2988 19.3274 25.2928 19.5154 25.2758V26.1248C19.3164 26.1598 19.1224 26.1838 18.9234 26.1838C17.6224 26.1838 17.1014 25.7028 17.1014 24.4958V20.6638H16.0814V19.8208H17.1014V18.1858H18.1084ZM10.0054 23.8798C10.1344 24.7648 10.9784 25.3268 12.1794 25.3268C13.3164 25.3268 14.1544 24.7118 14.1544 23.8738C14.1544 23.1538 13.6274 22.6968 12.4614 22.4038L11.3774 22.1218C9.84742 21.7358 9.18542 21.0438 9.18542 19.8428C9.18542 18.4068 10.3864 17.4348 12.1734 17.4348C13.8084 17.4348 15.0274 18.4068 15.1154 19.7728H14.0544C13.9084 18.9058 13.1934 18.3898 12.1384 18.3898C11.0134 18.3898 10.2694 18.9518 10.2694 19.8078C10.2694 20.4698 10.7324 20.8508 11.8984 21.1498L12.7834 21.3838C14.5354 21.8228 15.2384 22.5028 15.2384 23.7448C15.2384 25.2978 14.0134 26.2878 12.0804 26.2878C10.2874 26.2878 9.05042 25.3388 8.93942 23.8798H10.0054Z" fill="white" fill-opacity="0.8"/>
</g>
<defs>
<clipPath id="clip0_1_523">
<rect width="30" height="44" fill="white" transform="translate(8.08151 0.0888882)"/>
</clipPath>
</defs>
</svg>
