<svg width="94" height="45" viewBox="0 0 94 45" fill="none" xmlns="http://www.w3.org/2000/svg">
<g clip-path="url(#clip0_1_565)">
<path d="M8.20764 17.5752H13.4459V18.5244H9.26234V21.2373H13.2291V22.1748H9.26234V25.081H13.4459V26.0302H8.20764V17.5752ZM15.107 19.7139H16.1265V20.6631H16.2203C16.5367 19.9951 17.1285 19.6026 18.0601 19.6026C19.4781 19.6026 20.2691 20.4405 20.2691 21.9405V26.0303H19.2496V22.1865C19.2496 21.0498 18.7808 20.5049 17.773 20.5049C16.7652 20.5049 16.1265 21.1846 16.1265 22.292V26.0303H15.107V19.7139ZM22.3873 24.3897V20.5577H21.3912V19.7139H22.3873V18.0791H23.442V19.7139H24.8248V20.5577H23.442V24.1319C23.442 24.876 23.6998 25.1749 24.3561 25.1749C24.5377 25.1749 24.6373 25.169 24.8249 25.1515V26.0187C24.6257 26.0539 24.4323 26.0773 24.2331 26.0773C22.9322 26.0772 22.3873 25.5967 22.3873 24.3897ZM25.8238 22.8955V22.8896C25.8238 20.9384 26.9371 19.6025 28.6539 19.6025C30.3707 19.6025 31.4137 20.8798 31.4137 22.7666V23.165H26.8668C26.8961 24.4716 27.6168 25.2334 28.7418 25.2334C29.5973 25.2334 30.1246 24.8291 30.2945 24.4482L30.3179 24.3955H31.3374L31.3257 24.4424C31.1089 25.2979 30.2066 26.1416 28.7183 26.1416C26.9137 26.1416 25.8238 24.876 25.8238 22.8955ZM26.8844 22.3506H30.3766C30.2711 21.1026 29.5797 20.5108 28.6481 20.5108C27.7105 20.5108 26.9957 21.1494 26.8844 22.3506ZM32.8756 19.7139H33.8951V20.6514H33.9889C34.2291 19.9893 34.8209 19.6026 35.6764 19.6026C35.8698 19.6026 36.0866 19.626 36.1862 19.6436V20.6338C35.9753 20.5986 35.7819 20.5752 35.5592 20.5752C34.5865 20.5752 33.8951 21.1904 33.8951 22.1162V26.0303H32.8756V19.7139ZM37.8414 24.3897V20.5577H36.8453V19.7139H37.8414V18.0791H38.8961V19.7139H40.2789V20.5577H38.8961V24.1319C38.8961 24.876 39.1539 25.1749 39.8102 25.1749C39.9918 25.1749 40.0914 25.169 40.279 25.1515V26.0187C40.0798 26.0539 39.8864 26.0773 39.6872 26.0773C38.3863 26.0772 37.8414 25.5967 37.8414 24.3897ZM41.3072 24.2666V24.2549C41.3072 23.1299 42.1392 22.4795 43.6099 22.3916L45.4204 22.2803V21.7061C45.4204 20.9268 44.9458 20.5049 44.0024 20.5049C43.2465 20.5049 42.7485 20.7861 42.5844 21.2783L42.5785 21.2959H41.559L41.5649 21.2607C41.729 20.2705 42.6899 19.6025 44.0376 19.6025C45.5786 19.6025 46.4399 20.3935 46.4399 21.706V26.0302H45.4204V25.0986H45.3266C44.9282 25.7724 44.2661 26.1416 43.4164 26.1416C42.2154 26.1416 41.3072 25.4151 41.3072 24.2666ZM43.6275 25.2569C44.6646 25.2569 45.4205 24.5772 45.4205 23.6749V23.1007L43.733 23.2062C42.7721 23.2648 42.3502 23.6046 42.3502 24.2316V24.2433C42.3502 24.8819 42.8951 25.2569 43.6275 25.2569ZM48.0201 17.792C48.0201 17.4053 48.3365 17.0889 48.7232 17.0889C49.1099 17.0889 49.4263 17.4053 49.4263 17.792C49.4263 18.1787 49.1099 18.4951 48.7232 18.4951C48.3365 18.4951 48.0201 18.1787 48.0201 17.792ZM48.2076 19.7139H49.2271V26.0303H48.2076V19.7139ZM51.0289 19.7139H52.0484V20.6631H52.1422C52.4586 19.9951 53.0504 19.6026 53.982 19.6026C55.4 19.6026 56.191 20.4405 56.191 21.9405V26.0303H55.1715V22.1865C55.1715 21.0498 54.7027 20.5049 53.6949 20.5049C52.6871 20.5049 52.0484 21.1846 52.0484 22.292V26.0303H51.0289V19.7139ZM57.9107 19.7139H58.9302V20.6748H59.024C59.3052 19.9951 59.9029 19.6025 60.7291 19.6025C61.5846 19.6025 62.1822 20.0537 62.4752 20.7099H62.569C62.9088 20.0419 63.6295 19.6025 64.5026 19.6025C65.7917 19.6025 66.5124 20.3408 66.5124 21.665V26.0302H65.4929V21.8993C65.4929 20.9677 65.0652 20.5048 64.1745 20.5048C63.2956 20.5048 62.7155 21.1669 62.7155 21.9696V26.0301H61.696V21.741C61.696 20.991 61.1804 20.5047 60.3835 20.5047C59.5573 20.5047 58.9304 21.2254 58.9304 22.116V26.0301H57.9109L57.9107 19.7139ZM67.9156 22.8955V22.8896C67.9156 20.9384 69.0289 19.6025 70.7457 19.6025C72.4625 19.6025 73.5055 20.8798 73.5055 22.7666V23.165H68.9586C68.9879 24.4716 69.7086 25.2334 70.8336 25.2334C71.6891 25.2334 72.2164 24.8291 72.3863 24.4482L72.4097 24.3955H73.4292L73.4176 24.4424C73.2008 25.2979 72.2985 26.1416 70.8102 26.1416C69.0055 26.1416 67.9156 24.876 67.9156 22.8955ZM68.9762 22.3506H72.4684C72.3629 21.1026 71.6715 20.5108 70.7399 20.5108C69.8023 20.5108 69.0875 21.1494 68.9762 22.3506ZM74.9674 19.7139H75.9869V20.6631H76.0807C76.3971 19.9951 76.9889 19.6026 77.9205 19.6026C79.3385 19.6026 80.1295 20.4405 80.1295 21.9405V26.0303H79.11V22.1865C79.11 21.0498 78.6412 20.5049 77.6334 20.5049C76.6256 20.5049 75.9869 21.1846 75.9869 22.292V26.0303H74.9674V19.7139ZM82.2476 24.3897V20.5577H81.2515V19.7139H82.2476V18.0791H83.3023V19.7139H84.6851V20.5577H83.3023V24.1319C83.3023 24.876 83.5601 25.1749 84.2164 25.1749C84.398 25.1749 84.4976 25.169 84.6852 25.1515V26.0187C84.486 26.0539 84.2926 26.0773 84.0934 26.0773C82.7926 26.0772 82.2476 25.5967 82.2476 24.3897Z" fill="white" fill-opacity="0.8"/>
</g>
<defs>
<clipPath id="clip0_1_565">
<rect width="77" height="44" fill="white" transform="translate(8.20764 0.0888882)"/>
</clipPath>
</defs>
</svg>
