<svg width="60" height="45" viewBox="0 0 60 45" fill="none" xmlns="http://www.w3.org/2000/svg">
<g clip-path="url(#clip0_1_555)">
<path d="M20.6414 19.7725H21.6024V20.7095H21.6964C21.8834 20.0945 22.6104 19.6615 23.4484 19.6615C23.6124 19.6615 23.8234 19.6725 23.9524 19.6905V20.6985C23.8704 20.6745 23.5064 20.6395 23.3074 20.6395C22.3464 20.6395 21.6494 21.2845 21.6494 22.1745V26.0885H20.6414V19.7725ZM48.7764 19.6615C50.1004 19.6615 51.0204 20.3175 51.1554 21.3545H50.1594C50.0244 20.8505 49.5324 20.5165 48.7704 20.5165C48.0204 20.5165 47.4344 20.8975 47.4344 21.4595C47.4344 21.8935 47.7864 22.1635 48.5304 22.3445L49.5034 22.5795C50.6924 22.8665 51.2664 23.3815 51.2664 24.2905C51.2664 25.4205 50.1714 26.2005 48.7354 26.2005C47.3294 26.2005 46.3624 25.5265 46.2514 24.4775H47.2884C47.4584 25.0105 47.9624 25.3505 48.7704 25.3505C49.6204 25.3505 50.2294 24.9465 50.2294 24.3665C50.2294 23.9325 49.9014 23.6395 49.2274 23.4755L48.1434 23.2115C46.9604 22.9245 46.4214 22.4155 46.4214 21.5015C46.4214 20.4525 47.4344 19.6615 48.7764 19.6615ZM42.1114 25.2925C40.9564 25.2925 40.2654 24.4075 40.2654 22.9305C40.2654 21.4595 40.9624 20.5695 42.1114 20.5695C43.2534 20.5695 43.9684 21.4835 43.9684 22.9305C43.9684 24.3895 43.2594 25.2925 42.1114 25.2925ZM43.9454 17.2645V20.7685H43.8574C43.4994 20.0775 42.7554 19.6615 41.8764 19.6615C40.2714 19.6615 39.2224 20.9505 39.2224 22.9305C39.2224 24.9175 40.2594 26.2005 41.8764 26.2005C42.7494 26.2005 43.4994 25.7845 43.8984 25.0815H43.9924V26.0885H44.9534V17.2645H43.9454ZM34.9444 25.2925C33.7494 25.2925 33.0754 24.4245 33.0754 22.9305C33.0754 21.4305 33.7494 20.5695 34.9444 20.5695C36.1404 20.5695 36.8134 21.4305 36.8134 22.9305C36.8134 24.4245 36.1404 25.2925 34.9444 25.2925ZM34.9444 19.6615C33.1454 19.6615 32.0324 20.8975 32.0324 22.9305C32.0324 24.9585 33.1454 26.2005 34.9444 26.2005C36.7434 26.2005 37.8564 24.9585 37.8564 22.9305C37.8564 20.8975 36.7434 19.6615 34.9444 19.6615ZM17.8734 26.0885H18.8814V19.7725H17.8734V26.0885ZM17.6744 17.8505C17.6744 17.4635 17.9914 17.1475 18.3774 17.1475C18.7644 17.1475 19.0804 17.4635 19.0804 17.8505C19.0804 18.2375 18.7644 18.5535 18.3774 18.5535C17.9914 18.5535 17.6744 18.2375 17.6744 17.8505ZM11.5374 22.7725L12.8614 18.9995H12.9544L14.2794 22.7725H11.5374ZM13.4294 17.6335H12.3864L9.26945 26.0885H10.3764L11.2264 23.6685H14.5894L15.4394 26.0885H16.5464L13.4294 17.6335ZM28.2974 22.1335H26.4334V18.5715H28.2974C29.5214 18.5715 30.1954 19.2105 30.1954 20.3705C30.1954 21.4895 29.4984 22.1335 28.2974 22.1335ZM28.5724 17.6335H25.3794V26.0885H26.4334V23.0715H28.5604C30.1484 23.0715 31.2794 21.9525 31.2794 20.3705C31.2794 18.7585 30.1724 17.6335 28.5724 17.6335Z" fill="white" fill-opacity="0.8"/>
</g>
<defs>
<clipPath id="clip0_1_555">
<rect width="43" height="44" fill="white" transform="translate(8.92615 0.0888882)"/>
</clipPath>
</defs>
</svg>
