<svg width="40" height="45" viewBox="0 0 40 45" fill="none" xmlns="http://www.w3.org/2000/svg">
<path d="M16.3781 26.0876V19.6306H16.3078L13.6418 26.0876H12.7511L10.0851 19.6306H10.0148V26.0876H9.0304V17.6325H10.255L13.1495 24.6872H13.2433L16.1378 17.6325H17.3624V26.0876H16.3781ZM18.8947 24.318C18.8947 23.1871 19.7267 22.5368 21.1974 22.4489L23.0197 22.3376V21.7634C23.0197 20.9841 22.5334 20.5564 21.59 20.5564C20.8341 20.5564 20.3068 20.8435 20.1662 21.3416H19.1467C19.2815 20.3279 20.2776 19.66 21.6252 19.66C23.1662 19.66 24.0275 20.451 24.0275 21.7635V26.0877H23.0666V25.1559H22.9728C22.5626 25.8297 21.8712 26.1989 21.0275 26.1989C19.8029 26.1989 18.8947 25.4723 18.8947 24.318ZM23.0197 23.7321V23.152L21.3205 23.2633C20.3596 23.3278 19.9377 23.6617 19.9377 24.2945C19.9377 24.939 20.4826 25.314 21.215 25.314C22.2521 25.3141 23.0197 24.6344 23.0197 23.7321ZM29.9777 21.7048C29.8136 21.0778 29.257 20.5681 28.3488 20.5681C27.2121 20.5681 26.4972 21.4763 26.4972 22.906C26.4972 24.365 27.2238 25.2908 28.3488 25.2908C29.1984 25.2908 29.7902 24.8982 29.9777 24.1834H30.9972C30.8156 25.3436 29.8722 26.199 28.3546 26.199C26.5851 26.199 25.4542 24.9158 25.4542 22.906C25.4542 20.9372 26.5792 19.6599 28.3487 19.6599C29.8839 19.6599 30.8214 20.5798 30.9971 21.7048H29.9777Z" fill="white" fill-opacity="0.8"/>
</svg>
