<svg width="61" height="45" viewBox="0 0 61 45" fill="none" xmlns="http://www.w3.org/2000/svg">
<g clip-path="url(#clip0_1_575)">
<path d="M50.6097 18.1226V19.7576H52.0157V20.6016H50.6097V24.1756C50.6097 24.9196 50.8907 25.2356 51.5467 25.2356C51.7287 25.2356 51.8287 25.2296 52.0157 25.2126V26.0616C51.8167 26.0976 51.6237 26.1206 51.4237 26.1206C50.1237 26.1206 49.6017 25.6406 49.6017 24.4336V20.6016H48.5827V19.7576H49.6017V18.1226H50.6097ZM44.4787 19.7576H45.4397V20.6946H45.5327C45.7207 20.0796 46.4467 19.6456 47.2847 19.6456C47.4487 19.6456 47.6597 19.6576 47.7887 19.6756V20.6836C47.7067 20.6596 47.3437 20.6246 47.1447 20.6246C46.1837 20.6246 45.4857 21.2686 45.4857 22.1596V26.0736H44.4787V19.7576ZM42.0157 22.9156C42.0157 21.4156 41.3417 20.5546 40.1467 20.5546C38.9517 20.5546 38.2777 21.4156 38.2777 22.9156C38.2777 24.4096 38.9517 25.2766 40.1467 25.2766C41.3417 25.2766 42.0157 24.4096 42.0157 22.9156ZM37.2347 22.9156C37.2347 20.8826 38.3477 19.6456 40.1467 19.6456C41.9457 19.6456 43.0587 20.8826 43.0587 22.9156C43.0587 24.9426 41.9457 26.1856 40.1467 26.1856C38.3477 26.1856 37.2347 24.9426 37.2347 22.9156ZM35.1267 22.9156C35.1267 21.4386 34.4347 20.5546 33.2807 20.5546C32.1377 20.5546 31.4177 21.4626 31.4177 22.9156C31.4177 24.3626 32.1377 25.2766 33.2747 25.2766C34.4347 25.2766 35.1267 24.3926 35.1267 22.9156ZM36.1697 22.9156C36.1697 24.8906 35.1207 26.1856 33.5147 26.1856C32.6127 26.1856 31.8857 25.7926 31.5407 25.1246H31.4467V28.1836H30.4387V19.7576H31.3997V20.8116H31.4937C31.8977 20.0856 32.6537 19.6456 33.5147 19.6456C35.1267 19.6456 36.1697 20.9296 36.1697 22.9156ZM28.1217 22.9156C28.1217 21.4386 27.4307 20.5546 26.2767 20.5546C25.1337 20.5546 24.4127 21.4626 24.4127 22.9156C24.4127 24.3626 25.1337 25.2766 26.2707 25.2766C27.4307 25.2766 28.1217 24.3926 28.1217 22.9156ZM29.1647 22.9156C29.1647 24.8906 28.1157 26.1856 26.5107 26.1856C25.6087 26.1856 24.8817 25.7926 24.5357 25.1246H24.4427V28.1836H23.4347V19.7576H24.3957V20.8116H24.4887C24.8937 20.0856 25.6497 19.6456 26.5107 19.6456C28.1217 19.6456 29.1647 20.9296 29.1647 22.9156ZM21.5197 26.0736H20.5587V25.0836H20.4647C20.1487 25.7866 19.4747 26.1856 18.5077 26.1856C17.0897 26.1856 16.3517 25.3416 16.3517 23.8476V19.7576H17.3597V23.6016C17.3597 24.7376 17.7817 25.2656 18.7897 25.2656C19.9027 25.2656 20.5117 24.6026 20.5117 23.4956V19.7576H21.5197V26.0736ZM9.82973 23.8646C9.95873 24.7496 10.8017 25.3116 12.0037 25.3116C13.1397 25.3116 13.9777 24.6966 13.9777 23.8586C13.9777 23.1386 13.4507 22.6816 12.2847 22.3886L11.2007 22.1066C9.67173 21.7206 9.00873 21.0286 9.00873 19.8276C9.00873 18.3926 10.2107 17.4196 11.9977 17.4196C13.6317 17.4196 14.8507 18.3926 14.9387 19.7576H13.8787C13.7317 18.8906 13.0167 18.3746 11.9627 18.3746C10.8377 18.3746 10.0927 18.9366 10.0927 19.7926C10.0927 20.4546 10.5557 20.8356 11.7217 21.1346L12.6067 21.3686C14.3587 21.8086 15.0617 22.4876 15.0617 23.7296C15.0617 25.2826 13.8377 26.2726 11.9037 26.2726C10.1107 26.2726 8.87473 25.3236 8.76273 23.8646H9.82973Z" fill="white" fill-opacity="0.8"/>
</g>
<defs>
<clipPath id="clip0_1_575">
<rect width="44" height="44" fill="white" transform="translate(8.48914 0.0888882)"/>
</clipPath>
</defs>
</svg>
