<svg width="82" height="45" viewBox="0 0 82 45" fill="none" xmlns="http://www.w3.org/2000/svg">
<path d="M12.4424 26.0889V18.583H9.7178V17.6338H16.2217V18.583H13.4971V26.0889H12.4424ZM20.1738 26.0889L17.0566 17.6338H18.164L20.6484 24.7236H20.7422L23.2266 17.6338H24.334L21.2168 26.0889H20.1738ZM34.1548 25.2451C33.4341 25.8779 32.4439 26.2471 31.4185 26.2471C29.7369 26.2471 28.5591 25.251 28.5591 23.833C28.5591 22.831 29.104 22.0693 30.2349 21.4717C30.3111 21.4365 30.4693 21.3545 30.563 21.3076C29.7837 20.4873 29.5025 19.9424 29.5025 19.3271C29.5025 18.2431 30.4224 17.4345 31.6587 17.4345C32.9067 17.4345 33.8149 18.2314 33.8149 19.3388C33.8149 20.206 33.2934 20.8388 31.9868 21.5243L34.102 23.7977C34.3657 23.2704 34.5004 22.5789 34.5004 21.5243V21.3778H35.4848V21.5301C35.4848 22.8426 35.2504 23.7977 34.7875 24.5125L36.2583 26.0889H34.9341L34.1548 25.2451ZM29.6138 23.7627C29.6138 24.7119 30.3814 25.3565 31.5122 25.3565C32.2798 25.3565 33.0708 25.0518 33.5337 24.5655L31.1431 21.9522C31.0786 21.9756 30.9263 22.0518 30.8443 22.0928C30.0298 22.5147 29.6138 23.1006 29.6138 23.7627ZM32.8247 19.3741C32.8247 18.7179 32.3501 18.2725 31.6645 18.2725C30.9907 18.2725 30.5102 18.7295 30.5102 19.3858C30.5102 19.8546 30.7504 20.2647 31.4184 20.9268C32.4497 20.3994 32.8247 19.9776 32.8247 19.3741ZM46.3423 26.0889V22.2393H41.7017V26.0889H40.647V17.6338H41.7017V21.29H46.3423V17.6338H47.397V26.0889H46.3423ZM48.9878 22.9307C48.9878 20.8975 50.1011 19.6612 51.8999 19.6612C53.6987 19.6612 54.812 20.8975 54.812 22.9307C54.812 24.958 53.6987 26.2002 51.8999 26.2002C50.1011 26.2002 48.9878 24.958 48.9878 22.9307ZM53.769 22.9307C53.769 21.4307 53.0952 20.5694 51.8999 20.5694C50.7046 20.5694 50.0308 21.4307 50.0308 22.9307C50.0308 24.4248 50.7046 25.292 51.8999 25.292C53.0952 25.292 53.769 24.4248 53.769 22.9307ZM56.2744 19.7725H57.2353V20.7686H57.3291C57.6162 20.0655 58.249 19.6612 59.0928 19.6612C59.9483 19.6612 60.5459 20.1124 60.8389 20.7686H60.9327C61.2725 20.1006 61.9932 19.6612 62.8663 19.6612C64.1554 19.6612 64.8761 20.3995 64.8761 21.7237V26.0889H63.8683V21.958C63.8683 21.0264 63.4288 20.5693 62.5382 20.5693C61.6593 20.5693 61.0734 21.2255 61.0734 22.0283V26.0889H60.0656V21.7998C60.0656 21.0498 59.5441 20.5693 58.7472 20.5693C57.921 20.5693 57.2824 21.2841 57.2824 22.1748V26.0889H56.2746L56.2744 19.7725ZM71.7871 24.4541C71.4941 25.5322 70.5098 26.2002 69.1269 26.2002C67.3749 26.2002 66.2792 24.9346 66.2792 22.9365C66.2792 20.9502 67.3925 19.6611 69.1269 19.6611C70.832 19.6611 71.8691 20.874 71.8691 22.8369V23.2236H67.3281V23.2705C67.3808 24.5185 68.0781 25.3096 69.1504 25.3096C69.9649 25.3096 70.5156 25.0108 70.7793 24.4541H71.7871ZM67.3281 22.4092H70.8086C70.7852 21.2901 70.1172 20.5518 69.1152 20.5518C68.1074 20.5518 67.4043 21.2901 67.3281 22.4092Z" fill="white" fill-opacity="0.8"/>
</svg>
