<svg width="31" height="45" viewBox="0 0 31 45" fill="none" xmlns="http://www.w3.org/2000/svg">
<g clip-path="url(#clip0_1_517)">
<path d="M22.0136 17.7714C21.4928 18.0903 21.0613 18.5361 20.7596 19.0672C20.458 19.5983 20.296 20.1972 20.2888 20.8079C20.2909 21.4952 20.4945 22.1669 20.8746 22.7397C21.2546 23.3124 21.7942 23.7611 22.4267 24.0302C22.1774 24.8348 21.8083 25.5973 21.3319 26.292C20.6503 27.2732 19.9376 28.2543 18.8532 28.2543C17.7688 28.2543 17.4899 27.6243 16.2402 27.6243C15.0215 27.6243 14.5877 28.275 13.5962 28.275C12.6047 28.275 11.9128 27.3661 11.1175 26.2507C10.067 24.6881 9.48965 22.8556 9.45474 20.9731C9.45474 17.8747 11.4687 16.2326 13.4516 16.2326C14.5051 16.2326 15.383 16.9245 16.044 16.9245C16.674 16.9245 17.6552 16.1912 18.8532 16.1912C19.4692 16.1753 20.0796 16.3111 20.6308 16.5867C21.1819 16.8622 21.6568 17.2691 22.0136 17.7714ZM18.2852 14.8796C18.8133 14.2583 19.1123 13.4747 19.1321 12.6596C19.133 12.5521 19.1226 12.4449 19.1011 12.3396C18.194 12.4282 17.3551 12.8606 16.7566 13.548C16.2234 14.1445 15.9132 14.9072 15.8787 15.7065C15.8791 15.8037 15.8895 15.9006 15.9097 15.9957C15.9813 16.0092 16.0539 16.0161 16.1266 16.0164C16.5447 15.9831 16.9517 15.8652 17.3227 15.6698C17.6938 15.4743 18.0213 15.2055 18.2852 14.8796Z" fill="white" fill-opacity="0.8"/>
</g>
<defs>
<clipPath id="clip0_1_517">
<rect width="14" height="44" fill="white" transform="translate(8.94073 0.0888882)"/>
</clipPath>
</defs>
</svg>
